<!DOCTYPE svg PUBLIC "-//W3C//DTD SVG 1.1//EN" "http://www.w3.org/Graphics/SVG/1.1/DTD/svg11.dtd">
<!-- Uploaded to: SVG Repo, www.svgrepo.com, Transformed by: SVG Repo Mixer Tools -->
<svg height="800px" width="800px" version="1.1" id="Layer_1" xmlns="http://www.w3.org/2000/svg" xmlns:xlink="http://www.w3.org/1999/xlink" viewBox="0 0 512 512" xml:space="preserve" fill="#000000">
<g id="SVGRepo_bgCarrier" stroke-width="0"/>
<g id="SVGRepo_tracerCarrier" stroke-linecap="round" stroke-linejoin="round"/>
<g id="SVGRepo_iconCarrier"> <circle style="fill:#FF5050;" cx="256" cy="256" r="241.371"/> <path d="M256,512C114.842,512,0,397.158,0,256S114.842,0,256,0s256,114.842,256,256S397.158,512,256,512z M256,29.257 C130.974,29.257,29.257,130.974,29.257,256S130.974,482.743,256,482.743S482.743,381.026,482.743,256S381.026,29.257,256,29.257z"/> <path d="M266.243,445.765c-8.079,0-14.629-6.551-14.629-14.629c0-8.078,6.549-14.636,14.629-14.636s14.629,6.545,14.629,14.623 v0.013C280.871,439.214,274.322,445.765,266.243,445.765z"/> <path d="M314.511,438.126c-6.227,0-12.001-4.01-13.959-10.268c-2.411-7.711,1.886-15.917,9.598-18.328 c64.49-20.161,107.82-79.149,107.82-146.785c0-8.078,6.549-14.629,14.629-14.629c8.079,0,14.629,6.551,14.629,14.629 c0,39.782-12.548,77.616-36.289,109.407c-22.943,30.724-55.637,53.915-92.058,65.302 C317.427,437.909,315.957,438.126,314.511,438.126z"/> <path style="fill:#f6d32d;" d="M358.927,242.529l-168.052-99.672c-10.44-6.192-23.651,1.333-23.651,13.471v199.345 c0,12.139,13.211,19.662,23.651,13.471l168.052-99.672C369.156,263.404,369.156,248.596,358.927,242.529z"/> <path d="M182.892,386.014c-5.142,0-10.287-1.339-14.997-4.023c-9.58-5.455-15.299-15.296-15.299-26.32V156.327 c0-11.024,5.72-20.865,15.299-26.32c9.579-5.456,20.96-5.358,30.444,0.266l168.052,99.675v-0.001 c9.292,5.512,14.839,15.252,14.839,26.055c0,10.803-5.547,20.541-14.839,26.053l-168.05,99.672 C193.518,384.582,188.207,386.014,182.892,386.014z M182.904,155.269c-0.148,0-0.322,0.041-0.53,0.159 c-0.522,0.297-0.522,0.66-0.522,0.898v199.345c0,0.238,0,0.601,0.522,0.898c0.521,0.297,0.832,0.114,1.039-0.01l168.052-99.672 c0.189-0.113,0.506-0.301,0.506-0.888c0-0.588-0.316-0.777-0.506-0.888v-0.001l-168.052-99.673 C183.289,155.364,183.128,155.269,182.904,155.269z"/> </g>
</svg>